<svg xmlns="http://www.w3.org/2000/svg" viewBox="0 0 706.16 144.96" aria-labelledby="logoTitle logoDesc" role="img">
  <title id="logoTitle">Prosoco, Inc.</title>
  <desc id="logoDesc">Logo for Prosoco</desc>
  <path fill="#c1531b" d="M29.27 115.69V29.27h86.54l-.01 57.14H86.51v29.26l.04.03-57.28-.01z"></path>
  <path fill="#df916a" d="M115.78 144.95v.01l-21.97-21.99-7.26-7.27-57.28-.01v29.27h86.53l-.02-.01z"></path>
  <path fill="#ff671d" d="M29.27 115.69V29.27L0 0v115.68l.01.01h29.26z"></path>
  <path data-name="bottom triangle" fill="#ff9e6c" d="M.01 115.69l29.26 29.27v-29.27H.01z"></path>
  <path data-name="angle top" fill="#ffbc97" d="M145.04 115.68l-29.26-29.27H86.51l29.27 29.27h29.26z"></path>
  <path data-name="angle bottom" fill="#ff7734" d="M115.78 115.68L86.51 86.41v29.26l7.3 7.3 21.97 21.98v-29.27z"></path>
  <path fill="#df916a" d="M115.8 0H0l29.27 29.27h86.54V.02L115.8 0z"></path>
  <path data-name="right side" fill="#ff671d" d="M145.09 29.27h-29.28l-.01 57.14 29.25 29.27.04-86.41z"></path>
  <path data-name="top triangle" fill="#e9aa8b" d="M115.81.02v29.25h29.28L115.81.02z"></path>
  <g fill="#231f20">
    <path d="M189.64 101.67v14h-11V72.33h41.13c15.13 0 26.37 3.09 26.37 14.7 0 7.54-6.61 14.64-21.68 14.64zm0-21.37v13.53h33.6c7 0 10.56-2.78 10.56-6.74s-3.4-6.79-10.56-6.79zM324.4 115.69h-17.1l-22.42-14.45h-21.31v14.45h-11V72.33h47.37c8 0 20.93 3.46 20.93 14.7 0 7.11-5.5 13.71-21.43 13.71zm-60.83-35.45v13.22h34.09c7.17 0 10.87-2.78 10.87-6.49S305 80.24 298 80.24zM401.36 93.83c0 13.09-14.76 23.16-37.49 23.16s-37.42-10.07-37.42-23.16 14.76-23.29 37.42-23.29 37.49 10.19 37.49 23.29zm-62.68 0c0 7.84 8.83 14.26 25.19 14.26S389 101.67 389 93.83s-8.77-14.45-25.14-14.45-25.18 6.48-25.18 14.45zM408 84.75c0-8.71 11.73-14.21 32.54-14.21 13.9 0 24.83 2.54 33.85 7.72l-3.89 7.11c-8.71-5.25-19.15-7.23-31.38-7.23-12.47 0-18.53 2.22-18.53 5.74 0 3.15 4.39 5 21 5 23.84.12 34.77 3.7 34.77 12.59 0 9.7-15.13 15.51-35.94 15.51-13.9 0-24.46-2.72-33.66-9.08l4.2-6.73c8.09 6 18.1 8 30.57 8 15.32 0 22.3-3 22.3-6.73 0-3-4.64-4.75-22.86-4.88C418.6 97.47 408 93.58 408 84.75z"></path>
    <path data-name="o" d="M556.57 93.83c0 13.09-14.76 23.16-37.48 23.16s-37.43-10.07-37.43-23.16 14.76-23.29 37.43-23.29 37.48 10.19 37.48 23.29zm-62.68 0c0 7.84 8.83 14.26 25.2 14.26s25.13-6.42 25.13-14.26-8.77-14.45-25.13-14.45-25.2 6.48-25.2 14.45z"></path>
    <path d="M598.7 117c-23.96 0-37.7-10-37.7-23.17s14-23.29 37.67-23.29c12.47 0 20.69 3 28.47 7.79l-5.9 7.67c-5.19-3.82-11.55-6.29-22.54-6.29-17.36 0-25.45 6.11-25.45 14.08 0 7.78 8.09 14 25.45 14 11.61 0 18.34-2.78 23.4-7l6.12 7.79c-7.72 5.19-16.31 8.42-29.52 8.42z"></path>
    <path data-name="o" d="M706.16 93.83c0 13.09-14.76 23.16-37.48 23.16s-37.43-10.07-37.43-23.16S646 70.54 668.68 70.54s37.48 10.19 37.48 23.29zm-62.68 0c0 7.84 8.83 14.26 25.2 14.26s25.13-6.42 25.13-14.26-8.81-14.45-25.13-14.45-25.2 6.48-25.2 14.45z"></path>
  </g>
</svg>